<?xml version="1.0" standalone="no"?>
<!DOCTYPE svg PUBLIC "-//W3C//DTD SVG 20010904//EN"
 "http://www.w3.org/TR/2001/REC-SVG-20010904/DTD/svg10.dtd">
<svg version="1.0" xmlns="http://www.w3.org/2000/svg"
 width="33.000000pt" height="32.000000pt" viewBox="0 0 33.000000 32.000000"
 preserveAspectRatio="xMidYMid meet">

<g transform="translate(0.000000,32.000000) scale(0.100000,-0.100000)"
fill="#000000" stroke="none">
<path d="M110 274 c-64 -51 -69 -60 -44 -79 26 -20 38 -18 71 9 l28 24 30 -24
c36 -29 46 -29 75 -6 l22 17 -49 40 c-26 22 -55 45 -63 52 -12 9 -26 3 -70
-33z m149 -51 c2 -1 -2 -9 -9 -18 -11 -13 -17 -11 -48 15 l-35 29 -38 -29
c-30 -25 -39 -27 -48 -16 -9 11 -1 22 36 54 l48 40 45 -36 c25 -20 47 -37 49
-39z"/>
<path d="M96 143 l-59 -47 28 -22 28 -22 32 24 c39 29 43 29 79 -1 27 -22 31
-22 53 -8 12 8 23 20 23 27 0 12 -102 96 -117 96 -4 0 -34 -21 -67 -47z m121
-9 c35 -29 42 -39 32 -50 -10 -12 -17 -10 -45 11 -40 31 -40 31 -80 0 -26 -20
-34 -22 -43 -11 -9 11 -3 21 31 50 24 19 47 36 52 36 5 0 29 -16 53 -36z"/>
<path d="M127 62 c-16 -17 -15 -20 8 -42 25 -23 25 -23 47 -4 13 10 25 20 27
21 2 2 -4 12 -14 23 -23 25 -47 26 -68 2z m49 -30 c-13 -13 -17 -13 -31 -2
-16 13 -15 15 1 27 13 10 21 10 31 1 12 -10 12 -14 -1 -26z"/>
</g>
</svg>
