<?xml version="1.0" standalone="no"?>
<!DOCTYPE svg PUBLIC "-//W3C//DTD SVG 20010904//EN"
 "http://www.w3.org/TR/2001/REC-SVG-20010904/DTD/svg10.dtd">
<svg version="1.0" xmlns="http://www.w3.org/2000/svg"
 width="99.000000pt" height="16.000000pt" viewBox="0 0 99.000000 16.000000"
 preserveAspectRatio="xMidYMid meet">

<g transform="translate(0.000000,16.000000) scale(0.100000,-0.100000)"
fill="#FFFFFF" stroke="none">
<path d="M100 81 c0 -37 3 -41 24 -41 28 0 35 15 26 50 -3 16 -14 26 -28 28
-20 3 -22 -1 -22 -37z m40 19 c0 -5 -7 -10 -15 -10 -8 0 -15 5 -15 10 0 6 7
10 15 10 8 0 15 -4 15 -10z m0 -35 c0 -8 -7 -15 -15 -15 -8 0 -15 7 -15 15 0
8 7 15 15 15 8 0 15 -7 15 -15z"/>
<path d="M213 104 c-4 -10 0 -20 10 -26 21 -11 22 -32 2 -24 -8 3 -15 1 -15
-4 0 -14 37 -12 46 2 4 6 -2 19 -14 29 -28 22 -28 32 -1 24 15 -5 19 -4 15 4
-11 16 -36 13 -43 -5z"/>
<path d="M316 104 c-20 -19 -20 -29 0 -48 18 -18 32 -20 54 -6 11 7 7 9 -15 7
-26 -2 -30 1 -30 23 0 22 4 25 30 23 22 -2 26 0 15 7 -22 14 -36 12 -54 -6z"/>
<path d="M476 105 c-3 -9 3 -19 14 -25 28 -15 25 -33 -2 -25 -18 6 -20 5 -11
-5 15 -16 43 -6 43 15 0 9 -7 18 -15 21 -8 4 -15 11 -15 16 0 6 7 7 16 4 8 -3
12 -2 9 4 -9 15 -32 12 -39 -5z"/>
<path d="M575 93 c13 -56 16 -60 29 -34 l13 23 7 -23 c5 -19 8 -21 15 -9 15
26 23 72 11 65 -5 -3 -10 -16 -11 -28 0 -19 -2 -18 -11 7 l-11 29 -13 -24
c-10 -18 -13 -20 -14 -7 0 9 -5 20 -10 23 -7 4 -9 -3 -5 -22z"/>
<path d="M725 89 c-9 -17 -14 -36 -11 -42 3 -9 5 -9 5 1 1 15 51 16 51 0 0 -6
3 -9 6 -6 6 6 -22 78 -30 78 -3 0 -13 -14 -21 -31z m30 -9 c3 -5 -1 -10 -10
-10 -9 0 -13 5 -10 10 3 6 8 10 10 10 2 0 7 -4 10 -10z"/>
<path d="M831 78 c1 -24 3 -35 6 -26 2 9 14 18 26 20 34 5 29 42 -5 46 -27 3
-28 2 -27 -40z m42 17 c1 -5 -6 -11 -15 -13 -11 -2 -18 3 -18 13 0 17 30 18
33 0z"/>
</g>
</svg>
